<svg width="55" height="43" viewBox="0 0 55 43" fill="none" xmlns="http://www.w3.org/2000/svg">
<path d="M3.75 19.623H26.25V23.373H3.75V19.623ZM0 10.248H18.75V13.998H0V10.248Z" fill="#6C757D"/>
<path d="M54.2512 20.7593L48.6262 7.6343C48.4819 7.29695 48.2416 7.00942 47.9353 6.80742C47.6289 6.60542 47.27 6.49785 46.9031 6.49805H41.2781V2.74805C41.2781 2.25077 41.0806 1.77385 40.7289 1.42222C40.3773 1.07059 39.9004 0.873047 39.4031 0.873047H9.40309V4.62305H37.5281V28.1655C36.6737 28.6617 35.926 29.322 35.3281 30.1085C34.7302 30.895 34.2939 31.7921 34.0443 32.748H22.2618C21.8055 30.9806 20.7202 29.4402 19.2093 28.4157C17.6985 27.3911 15.8659 26.9528 14.055 27.1828C12.2441 27.4128 10.5792 28.2954 9.37249 29.6651C8.16576 31.0348 7.5 32.7976 7.5 34.623C7.5 36.4485 8.16576 38.2113 9.37249 39.581C10.5792 40.9507 12.2441 41.8333 14.055 42.0633C15.8659 42.2933 17.6985 41.8549 19.2093 40.8304C20.7202 39.8059 21.8055 38.2655 22.2618 36.498H34.0443C34.4522 38.1072 35.385 39.5345 36.6952 40.554C38.0053 41.5735 39.618 42.127 41.2781 42.127C42.9382 42.127 44.5509 41.5735 45.861 40.554C47.1712 39.5345 48.104 38.1072 48.5118 36.498H52.5281C53.0254 36.498 53.5023 36.3005 53.8539 35.9489C54.2056 35.5972 54.4031 35.1203 54.4031 34.623V21.498C54.4032 21.244 54.3515 20.9927 54.2512 20.7593ZM15.0281 38.373C14.2864 38.373 13.5614 38.1531 12.9447 37.7411C12.328 37.329 11.8474 36.7433 11.5635 36.0581C11.2797 35.3729 11.2055 34.6189 11.3501 33.8915C11.4948 33.164 11.852 32.4958 12.3764 31.9714C12.9009 31.447 13.5691 31.0898 14.2965 30.9451C15.0239 30.8004 15.7779 30.8747 16.4632 31.1585C17.1484 31.4423 17.734 31.923 18.1461 32.5397C18.5582 33.1563 18.7781 33.8814 18.7781 34.623C18.7771 35.6173 18.3817 36.5706 17.6786 37.2736C16.9756 37.9766 16.0224 38.3721 15.0281 38.373ZM41.2781 10.248H45.6656L49.6856 19.623H41.2781V10.248ZM41.2781 38.373C40.5364 38.373 39.8114 38.1531 39.1947 37.7411C38.578 37.329 38.0974 36.7433 37.8135 36.0581C37.5297 35.3729 37.4555 34.6189 37.6002 33.8915C37.7448 33.164 38.102 32.4958 38.6264 31.9714C39.1509 31.447 39.8191 31.0898 40.5465 30.9451C41.2739 30.8004 42.0279 30.8747 42.7132 31.1585C43.3984 31.4423 43.984 31.923 44.3961 32.5397C44.8082 33.1563 45.0281 33.8814 45.0281 34.623C45.0271 35.6173 44.6317 36.5706 43.9286 37.2736C43.2256 37.9766 42.2724 38.3721 41.2781 38.373ZM50.6531 32.748H48.5118C48.0988 31.142 47.1645 29.7184 45.8554 28.7004C44.5463 27.6824 42.9364 27.1277 41.2781 27.123V23.373H50.6531V32.748Z" fill="#6C757D"/>
</svg>
