<svg width="48" height="49" viewBox="0 0 48 49" fill="none" xmlns="http://www.w3.org/2000/svg">
<path d="M25.8 21.5C24.6 21.2 23.4 20.6 22.5 19.7C21.6 19.4 21.3 18.5 21.3 17.9C21.3 17.3 21.6 16.4 22.2 16.1C23.1 15.5 24 14.9 24.9 15.2C26.7 15.2 28.2 16.1 29.1 17.3L31.8 13.7C30.9 12.8 30 12.2 29.1 11.6C28.2 11 27 10.7 25.8 10.7V6.5H22.2V10.7C20.7 11 19.2 11.9 18 13.1C16.8 14.6 15.9 16.4 16.2 18.2C16.2 20 16.8 21.8 18 23C19.5 24.5 21.6 25.4 23.4 26.3C24.3 26.6 25.5 27.2 26.4 27.8C27 28.4 27.3 29.3 27.3 30.2C27.3 31.1 27 32 26.4 32.9C25.5 33.8 24.3 34.1 23.4 34.1C22.2 34.1 20.7 33.8 19.8 32.9C18.9 32.3 18 31.4 17.4 30.5L14.4 33.8C15.3 35 16.2 35.9 17.4 36.8C18.9 37.7 20.7 38.6 22.5 38.6V42.5H25.8V38C27.6 37.7 29.1 36.8 30.3 35.6C31.8 34.1 32.7 31.7 32.7 29.6C32.7 27.8 32.1 25.7 30.6 24.5C29.1 23 27.6 22.1 25.8 21.5ZM24 0.5C10.8 0.5 0 11.3 0 24.5C0 37.7 10.8 48.5 24 48.5C37.2 48.5 48 37.7 48 24.5C48 11.3 37.2 0.5 24 0.5ZM24 45.2C12.6 45.2 3.3 35.9 3.3 24.5C3.3 13.1 12.6 3.8 24 3.8C35.4 3.8 44.7 13.1 44.7 24.5C44.7 35.9 35.4 45.2 24 45.2Z" fill="#6C757D"/>
</svg>
