<svg width="57" height="45" viewBox="0 0 57 45" fill="none" xmlns="http://www.w3.org/2000/svg">
<path d="M5.625 0V6.855L0 14.355V15C0 18.0844 2.54063 20.625 5.625 20.625V45H35.625V28.125H39.375V45H50.625V20.625C53.7094 20.625 56.25 18.0844 56.25 15V14.355L50.625 6.855V0H5.625ZM9.375 3.75H46.875V5.625H9.375V3.75ZM8.4375 9.375H47.8125L52.3237 15.4106C52.1175 16.2225 51.5044 16.875 50.625 16.875C49.5844 16.875 48.75 16.0406 48.75 15H45C45 16.0406 44.1656 16.875 43.125 16.875C42.0844 16.875 41.25 16.0406 41.25 15H37.5C37.5 16.0406 36.6656 16.875 35.625 16.875C34.5844 16.875 33.75 16.0406 33.75 15H30C30 16.0406 29.1656 16.875 28.125 16.875C27.0844 16.875 26.25 16.0406 26.25 15H22.5C22.5 16.0406 21.6656 16.875 20.625 16.875C19.5844 16.875 18.75 16.0406 18.75 15H15C15 16.0406 14.1656 16.875 13.125 16.875C12.0844 16.875 11.25 16.0406 11.25 15H7.5C7.5 16.0406 6.66563 16.875 5.625 16.875C4.74563 16.875 4.13063 16.2225 3.92625 15.4106L8.4375 9.375ZM9.375 19.1606C10.3706 20.0606 11.6888 20.625 13.125 20.625C14.5612 20.625 15.8794 20.0625 16.875 19.1606C17.8706 20.0606 19.1887 20.625 20.625 20.625C22.0613 20.625 23.3794 20.0625 24.375 19.1606C25.3706 20.0606 26.6887 20.625 28.125 20.625C29.5613 20.625 30.8794 20.0625 31.875 19.1606C32.8706 20.0606 34.1888 20.625 35.625 20.625C37.0612 20.625 38.3794 20.0625 39.375 19.1606C40.3706 20.0606 41.6888 20.625 43.125 20.625C44.5612 20.625 45.8794 20.0625 46.875 19.1606V41.25H43.125V24.375H31.875V41.25H9.375V19.1606ZM13.125 24.375V37.5H28.125V24.375H13.125ZM16.875 28.125H24.375V33.75H16.875V28.125Z" fill="#6C757D"/>
</svg>
